<?xml version="1.0" encoding="utf-8"?>
<!-- Generator: Adobe Illustrator 24.1.3, SVG Export Plug-In . SVG Version: 6.00 Build 0)  -->
<svg version="1.1" id="Layer_1" xmlns="http://www.w3.org/2000/svg" xmlns:xlink="http://www.w3.org/1999/xlink" x="0px" y="0px"
	 viewBox="0 0 196.7 49.7" style="enable-background:new 0 0 196.7 49.7;" xml:space="preserve">
<style type="text/css">
	.st0{fill:#FFFFFF;}
</style>
<g>
	<polygon class="st0" points="92.8,31.4 91,37.7 89.9,45.1 86.7,32 84.2,32 81.3,45.1 80,37.7 78.2,31.4 74.8,31.4 79.6,49.6 
		83,49.6 85.5,39.8 88.1,49.6 91.6,49.6 96.1,31.4 	"/>
	<polygon class="st0" points="97.9,31.4 97.9,49.6 108.7,49.6 108.7,46.6 101.2,46.6 101.2,41.8 107.3,41.8 107.3,38.9 101.2,38.9 
		101.2,34.2 108.3,34.2 108.3,31.4 	"/>
	<g>
		<path class="st0" d="M116.2,34.2c-1.8,0-2.5,0.6-2.5,2.3c0,2.3,1.8,2.1,4.6,2.5c2.1,0.3,4.1,1.2,4.1,4.8c0,4.2-1.8,5.9-6.2,5.9
			c-4.5,0-5.9-2.2-5.9-5.1h3.3c0.1,1.4,0.7,2.1,2.8,2.1c2,0,2.8-0.8,2.8-2.9c0-2.1-2.5-2.1-4.5-2.4c-2-0.3-4.2-1.3-4.2-5
			c0-3.4,2.1-5.1,5.8-5.1c3.3,0,5.4,1.2,5.7,4.8h-3.3C118.6,34.6,117.8,34.2,116.2,34.2"/>
	</g>
	<polygon class="st0" points="123.5,31.5 123.5,34.4 127.3,34.4 127.3,49.5 130.5,49.5 130.5,34.4 134.2,34.4 134.2,31.5 	"/>
	<g>
		<path class="st0" d="M8.8,0H0.2L0,0.3v25.9l0.2,0.2h8.5c6.3,0,9.1-2.4,9.1-7.8V8C17.8,2.4,15.1,0,8.8,0z M12.7,18.3
			c0,2.2-0.6,3.4-4,3.4H5.1V4.8h3.7c3.3,0,3.9,1,3.9,3.5V18.3z"/>
		<polygon class="st0" points="37.1,21.9 37.1,26.2 36.8,26.4 21.5,26.4 21.3,26.2 21.3,0.3 21.5,0 36.4,0 36.6,0.3 36.6,4.3 
			36.4,4.6 26.4,4.6 26.4,10.7 34.9,10.7 35.1,11 35.1,15.1 34.9,15.4 26.4,15.4 26.4,21.7 36.8,21.7 		"/>
		<polygon class="st0" points="55.6,0.3 55.6,4.5 55.3,4.8 45.1,4.8 45.1,10.7 53.7,10.7 54,11 54,15.1 53.7,15.4 45.1,15.4 
			45.1,26.2 44.8,26.4 40.2,26.4 40,26.2 40,0.3 40.2,0 55.3,0 		"/>
		<polygon class="st0" points="74.2,21.9 74.2,26.2 73.9,26.4 58.6,26.4 58.3,26.2 58.3,0.3 58.6,0 73.5,0 73.7,0.3 73.7,4.3 
			73.5,4.6 63.5,4.6 63.5,10.7 71.9,10.7 72.2,11 72.2,15.1 71.9,15.4 63.5,15.4 63.5,21.7 73.9,21.7 		"/>
		<polygon class="st0" points="93.8,0.3 93.8,26.1 93.6,26.4 89.1,26.4 88.8,26.2 81.8,11 82.1,19.5 82.1,26.1 81.9,26.4 77.3,26.4 
			77,26.1 77,0.3 77.3,0.1 81.9,0.1 82.1,0.2 89.2,16 88.7,6.4 88.7,0.3 89,0.1 93.6,0.1 		"/>
		<path class="st0" d="M115.1,17.9l0.2,0.2c0,5.8-2.8,8.3-9.1,8.3c-6.2,0-8.9-2.4-8.9-8V8c0-5.7,2.6-8,8.9-8c6.5,0,9.1,2.4,9.1,8.3
			l-0.2,0.2h-4.6l-0.2-0.2c0-2.5-0.6-3.7-4-3.7c-3.2,0-3.8,1.2-3.8,3.6v10c0,2.4,0.6,3.6,3.8,3.6c3.3,0,4-1.4,4-3.7l0.2-0.2H115.1z"
			/>
		<polygon class="st0" points="134.3,21.9 134.3,26.2 134.1,26.4 118.8,26.4 118.5,26.2 118.5,0.3 118.8,0 133.6,0 133.9,0.3 
			133.9,4.3 133.6,4.6 123.6,4.6 123.6,10.7 132.1,10.7 132.4,11 132.4,15.1 132.1,15.4 123.6,15.4 123.6,21.7 134.1,21.7 		"/>
	</g>
	<polygon class="st0" points="188.1,43.4 189.9,40.4 183.7,39.8 	"/>
	<g>
		<polygon class="st0" points="190.7,39.2 196.4,24.8 170.9,37.3 		"/>
	</g>
	<polygon class="st0" points="169.4,36.7 196.7,23.2 187.6,0.2 	"/>
	<g>
		<polygon class="st0" points="168.5,3.6 168.5,35.8 180.6,11.2 		"/>
	</g>
	<polygon class="st0" points="154.9,15.6 144.2,24 161.3,39.3 167.2,37.7 167.2,4.1 	"/>
</g>
</svg>
